<svg xmlns="http://www.w3.org/2000/svg" width="1440" height="900" viewBox="0 0 1440 900"><rect x="0" y="0" width="1440" height="900" rx="0" fill="#0B0D0F" stroke="#0B0D0F"/><rect x="0" y="0" width="1440" height="40" rx="0" fill="#0F1114" stroke="#30363D"/><text x="18" y="26" fill="#F1F4F6" font-family="Inter,DejaVu Sans,sans-serif" font-size="13" font-weight="650" text-anchor="start">Koffer</text><text x="220" y="26" fill="#66717C" font-family="Inter,DejaVu Sans,sans-serif" font-size="11" font-weight="450" text-anchor="start">Similar to / SP1200_Kick_07.wav</text><text x="1418" y="26" fill="#67B983" font-family="Inter,DejaVu Sans,sans-serif" font-size="12" font-weight="400" text-anchor="end">●</text><rect x="0" y="40" width="224" height="788" rx="0" fill="#121518" stroke="#121518"/><text x="20" y="76" fill="#E7A36F" font-family="Inter,DejaVu Sans,sans-serif" font-size="18" font-weight="800" text-anchor="start">KOFFER</text><rect x="12" y="94" width="200" height="34" rx="5" fill="#20252A" stroke="#30363D"/><rect x="12" y="94" width="3" height="34" rx="1.5" fill="#CF8652"/><text x="28" y="116" fill="#F1F4F6" font-family="Inter,DejaVu Sans,sans-serif" font-size="13" font-weight="650" text-anchor="start">Library</text><text x="28" y="156" fill="#98A2AD" font-family="Inter,DejaVu Sans,sans-serif" font-size="13" font-weight="450" text-anchor="start">Favourites</text><text x="28" y="196" fill="#98A2AD" font-family="Inter,DejaVu Sans,sans-serif" font-size="13" font-weight="450" text-anchor="start">Recents</text><text x="28" y="236" fill="#98A2AD" font-family="Inter,DejaVu Sans,sans-serif" font-size="13" font-weight="450" text-anchor="start">Review</text><text x="28" y="276" fill="#98A2AD" font-family="Inter,DejaVu Sans,sans-serif" font-size="13" font-weight="450" text-anchor="start">Collections</text><text x="28" y="316" fill="#98A2AD" font-family="Inter,DejaVu Sans,sans-serif" font-size="13" font-weight="450" text-anchor="start">Saved Searches</text><text x="28" y="356" fill="#98A2AD" font-family="Inter,DejaVu Sans,sans-serif" font-size="13" font-weight="450" text-anchor="start">Sources</text><text x="28" y="396" fill="#98A2AD" font-family="Inter,DejaVu Sans,sans-serif" font-size="13" font-weight="450" text-anchor="start">Activity</text><text x="28" y="436" fill="#98A2AD" font-family="Inter,DejaVu Sans,sans-serif" font-size="13" font-weight="450" text-anchor="start">Settings</text><line x1="12" y1="492" x2="212" y2="492" stroke="#30363D" stroke-width="1"/><text x="20" y="524" fill="#66717C" font-family="Inter,DejaVu Sans,sans-serif" font-size="10" font-weight="700" text-anchor="start">COLLECTIONS</text><text x="28" y="552" fill="#98A2AD" font-family="Inter,DejaVu Sans,sans-serif" font-size="12" font-weight="400" text-anchor="start">Drum Machine Gold</text><text x="28" y="580" fill="#98A2AD" font-family="Inter,DejaVu Sans,sans-serif" font-size="12" font-weight="400" text-anchor="start">Vinyl Chops</text><text x="20" y="626" fill="#66717C" font-family="Inter,DejaVu Sans,sans-serif" font-size="10" font-weight="700" text-anchor="start">SOURCES</text><text x="28" y="654" fill="#67B983" font-family="Inter,DejaVu Sans,sans-serif" font-size="12" font-weight="400" text-anchor="start">Studio SSD</text><text x="28" y="682" fill="#D7B65E" font-family="Inter,DejaVu Sans,sans-serif" font-size="12" font-weight="400" text-anchor="start">Archive Drive</text><text x="248" y="80" fill="#F1F4F6" font-family="Inter,DejaVu Sans,sans-serif" font-size="22" font-weight="700" text-anchor="start">Similar Sounds</text><rect x="248" y="104" width="832" height="92" rx="7" fill="#181C20" stroke="#CF8652"/><text x="266" y="132" fill="#E7A36F" font-family="Inter,DejaVu Sans,sans-serif" font-size="10" font-weight="700" text-anchor="start">SEED</text><text x="266" y="160" fill="#F1F4F6" font-family="Inter,DejaVu Sans,sans-serif" font-size="14" font-weight="700" text-anchor="start">SP1200_Kick_07.wav</text><rect x="456" y="143" width="58" height="24" rx="12" fill="#3A2A20" stroke="#30363D"/><text x="466" y="159" fill="#E7A36F" font-family="Inter,DejaVu Sans,sans-serif" font-size="11" font-weight="600" text-anchor="start">Kick</text><rect x="520" y="143" width="76" height="24" rx="12" fill="#20252A" stroke="#30363D"/><text x="530" y="159" fill="#98A2AD" font-family="Inter,DejaVu Sans,sans-serif" font-size="11" font-weight="600" text-anchor="start">One-shot</text><text x="248" y="230" fill="#66717C" font-family="Inter,DejaVu Sans,sans-serif" font-size="10" font-weight="700" text-anchor="start">RANKED BY AUDIO SIMILARITY</text><rect x="248" y="246" width="832" height="36" rx="4" fill="#121518" stroke="#30363D"/><text x="264" y="269" fill="#66717C" font-family="Inter,DejaVu Sans,sans-serif" font-size="10" font-weight="700" text-anchor="start">NAME</text><text x="680.64" y="269" fill="#66717C" font-family="Inter,DejaVu Sans,sans-serif" font-size="10" font-weight="700" text-anchor="start">SIMILARITY</text><text x="813.76" y="269" fill="#66717C" font-family="Inter,DejaVu Sans,sans-serif" font-size="10" font-weight="700" text-anchor="start"></text><text x="905.28" y="269" fill="#66717C" font-family="Inter,DejaVu Sans,sans-serif" font-size="10" font-weight="700" text-anchor="start"></text><text x="988.48" y="269" fill="#66717C" font-family="Inter,DejaVu Sans,sans-serif" font-size="10" font-weight="700" text-anchor="start">DURATION</text><rect x="248" y="282" width="832" height="38" rx="0" fill="#20252A" stroke="#252B30"/><text x="264" y="306" fill="#F1F4F6" font-family="Inter,DejaVu Sans,sans-serif" font-size="12" font-weight="650" text-anchor="start">MPC60_Kick_03.wav</text><text x="680.64" y="306" fill="#98A2AD" font-family="Inter,DejaVu Sans,sans-serif" font-size="11" font-weight="400" text-anchor="start">96%</text><text x="813.76" y="306" fill="#98A2AD" font-family="Inter,DejaVu Sans,sans-serif" font-size="11" font-weight="400" text-anchor="start">—</text><text x="905.28" y="306" fill="#98A2AD" font-family="Inter,DejaVu Sans,sans-serif" font-size="11" font-weight="400" text-anchor="start">—</text><text x="988.48" y="306" fill="#98A2AD" font-family="Inter,DejaVu Sans,sans-serif" font-size="11" font-weight="400" text-anchor="start">0.40s</text><rect x="248" y="320" width="832" height="38" rx="0" fill="#14181C" stroke="#252B30"/><text x="264" y="344" fill="#F1F4F6" font-family="Inter,DejaVu Sans,sans-serif" font-size="12" font-weight="450" text-anchor="start">DMX_Kick_01.wav</text><text x="680.64" y="344" fill="#98A2AD" font-family="Inter,DejaVu Sans,sans-serif" font-size="11" font-weight="400" text-anchor="start">92%</text><text x="813.76" y="344" fill="#98A2AD" font-family="Inter,DejaVu Sans,sans-serif" font-size="11" font-weight="400" text-anchor="start">—</text><text x="905.28" y="344" fill="#98A2AD" font-family="Inter,DejaVu Sans,sans-serif" font-size="11" font-weight="400" text-anchor="start">—</text><text x="988.48" y="344" fill="#98A2AD" font-family="Inter,DejaVu Sans,sans-serif" font-size="11" font-weight="400" text-anchor="start">0.35s</text><rect x="248" y="358" width="832" height="38" rx="0" fill="#121518" stroke="#252B30"/><text x="264" y="382" fill="#F1F4F6" font-family="Inter,DejaVu Sans,sans-serif" font-size="12" font-weight="450" text-anchor="start">Linn_Kick_06.wav</text><text x="680.64" y="382" fill="#98A2AD" font-family="Inter,DejaVu Sans,sans-serif" font-size="11" font-weight="400" text-anchor="start">90%</text><text x="813.76" y="382" fill="#98A2AD" font-family="Inter,DejaVu Sans,sans-serif" font-size="11" font-weight="400" text-anchor="start">—</text><text x="905.28" y="382" fill="#98A2AD" font-family="Inter,DejaVu Sans,sans-serif" font-size="11" font-weight="400" text-anchor="start">—</text><text x="988.48" y="382" fill="#98A2AD" font-family="Inter,DejaVu Sans,sans-serif" font-size="11" font-weight="400" text-anchor="start">0.37s</text><rect x="248" y="396" width="832" height="38" rx="0" fill="#14181C" stroke="#252B30"/><text x="264" y="420" fill="#F1F4F6" font-family="Inter,DejaVu Sans,sans-serif" font-size="12" font-weight="450" text-anchor="start">Vinyl_Kick_14.wav</text><text x="680.64" y="420" fill="#98A2AD" font-family="Inter,DejaVu Sans,sans-serif" font-size="11" font-weight="400" text-anchor="start">86%</text><text x="813.76" y="420" fill="#98A2AD" font-family="Inter,DejaVu Sans,sans-serif" font-size="11" font-weight="400" text-anchor="start">—</text><text x="905.28" y="420" fill="#98A2AD" font-family="Inter,DejaVu Sans,sans-serif" font-size="11" font-weight="400" text-anchor="start">—</text><text x="988.48" y="420" fill="#98A2AD" font-family="Inter,DejaVu Sans,sans-serif" font-size="11" font-weight="400" text-anchor="start">0.44s</text><rect x="248" y="434" width="832" height="38" rx="0" fill="#121518" stroke="#252B30"/><text x="264" y="458" fill="#F1F4F6" font-family="Inter,DejaVu Sans,sans-serif" font-size="12" font-weight="450" text-anchor="start">TR909_Kick_08.wav</text><text x="680.64" y="458" fill="#98A2AD" font-family="Inter,DejaVu Sans,sans-serif" font-size="11" font-weight="400" text-anchor="start">82%</text><text x="813.76" y="458" fill="#98A2AD" font-family="Inter,DejaVu Sans,sans-serif" font-size="11" font-weight="400" text-anchor="start">—</text><text x="905.28" y="458" fill="#98A2AD" font-family="Inter,DejaVu Sans,sans-serif" font-size="11" font-weight="400" text-anchor="start">—</text><text x="988.48" y="458" fill="#98A2AD" font-family="Inter,DejaVu Sans,sans-serif" font-size="11" font-weight="400" text-anchor="start">0.49s</text><rect x="248" y="472" width="832" height="38" rx="0" fill="#14181C" stroke="#252B30"/><text x="264" y="496" fill="#F1F4F6" font-family="Inter,DejaVu Sans,sans-serif" font-size="12" font-weight="450" text-anchor="start">TapeKick_02.wav</text><text x="680.64" y="496" fill="#98A2AD" font-family="Inter,DejaVu Sans,sans-serif" font-size="11" font-weight="400" text-anchor="start">79%</text><text x="813.76" y="496" fill="#98A2AD" font-family="Inter,DejaVu Sans,sans-serif" font-size="11" font-weight="400" text-anchor="start">—</text><text x="905.28" y="496" fill="#98A2AD" font-family="Inter,DejaVu Sans,sans-serif" font-size="11" font-weight="400" text-anchor="start">—</text><text x="988.48" y="496" fill="#98A2AD" font-family="Inter,DejaVu Sans,sans-serif" font-size="11" font-weight="400" text-anchor="start">0.41s</text><rect x="1104" y="40" width="336" height="788" rx="0" fill="#121518" stroke="#30363D"/><text x="1124" y="76" fill="#66717C" font-family="Inter,DejaVu Sans,sans-serif" font-size="10" font-weight="700" text-anchor="start">INSPECTOR</text><text x="1124" y="106" fill="#F1F4F6" font-family="Inter,DejaVu Sans,sans-serif" font-size="15" font-weight="700" text-anchor="start">MPC60_Kick_03.wav</text><rect x="1124" y="130" width="296" height="112" rx="4" fill="#101316" stroke="#30363D"/><polyline points="1124.0,186.0 1127.7,203.9 1131.4,211.4 1135.1,204.9 1138.8,190.5 1142.5,179.0 1146.2,179.2 1149.9,191.5 1153.6,207.6 1157.3,216.4 1161.0,211.1 1164.7,194.5 1168.4,176.4 1172.1,167.7 1175.8,172.6 1179.5,186.0 1183.2,197.1 1186.9,196.8 1190.6,183.8 1194.3,166.0 1198.0,154.6 1201.7,157.0 1205.4,171.6 1209.1,188.9 1212.8,197.8 1216.5,193.5 1220.2,180.2 1223.9,168.6 1227.6,168.3 1231.3,181.2 1235.0,200.2 1238.7,214.0 1242.4,214.4 1246.1,202.2 1249.8,186.3 1253.5,177.8 1257.2,182.3 1260.9,196.3 1264.6,209.2 1268.3,211.2 1272.0,199.4 1275.7,180.1 1279.4,164.8 1283.1,162.2 1286.8,172.3 1290.5,186.9 1294.2,194.8 1297.9,189.8 1301.6,174.7 1305.3,159.8 1309.0,155.3 1312.7,165.1 1316.4,183.5 1320.1,199.2 1323.8,203.2 1327.5,194.4 1331.2,180.5 1334.9,172.7 1338.6,177.9 1342.3,193.9 1346.0,210.9 1349.7,218.2 1353.4,211.1 1357.1,194.5 1360.8,179.2 1364.5,174.9 1368.2,183.3 1371.9,197.4 1375.6,206.0 1379.3,201.4 1383.0,185.2 1386.7,166.6 1390.4,156.8 1394.1,161.1 1397.8,175.7 1401.5,189.9 1405.2,193.9 1408.9,185.1 1412.6,170.0 1416.3,159.8 1420.0,162.6" fill="none" stroke="#CF8652" stroke-width="2"/><line x1="1124" y1="186" x2="1420" y2="186" stroke="#252B30" stroke-width="1"/><text x="1124" y="272" fill="#66717C" font-family="Inter,DejaVu Sans,sans-serif" font-size="10" font-weight="700" text-anchor="start">CLASSIFICATION</text><rect x="1124" y="286" width="76" height="24" rx="12" fill="#3A2A20" stroke="#30363D"/><text x="1134" y="302" fill="#E7A36F" font-family="Inter,DejaVu Sans,sans-serif" font-size="11" font-weight="600" text-anchor="start">One-shot</text><rect x="1208" y="286" width="58" height="24" rx="12" fill="#20252A" stroke="#30363D"/><text x="1218" y="302" fill="#98A2AD" font-family="Inter,DejaVu Sans,sans-serif" font-size="11" font-weight="600" text-anchor="start">Kick</text><text x="1124" y="344" fill="#66717C" font-family="Inter,DejaVu Sans,sans-serif" font-size="10" font-weight="700" text-anchor="start">BPM</text><text x="1166" y="344" fill="#F1F4F6" font-family="Inter,DejaVu Sans,sans-serif" font-size="12" font-weight="600" text-anchor="start">—</text><text x="1232" y="344" fill="#66717C" font-family="Inter,DejaVu Sans,sans-serif" font-size="10" font-weight="700" text-anchor="start">KEY</text><text x="1272" y="344" fill="#F1F4F6" font-family="Inter,DejaVu Sans,sans-serif" font-size="12" font-weight="600" text-anchor="start">—</text><text x="1124" y="388" fill="#66717C" font-family="Inter,DejaVu Sans,sans-serif" font-size="10" font-weight="700" text-anchor="start">FORMAT</text><text x="1170" y="388" fill="#98A2AD" font-family="Inter,DejaVu Sans,sans-serif" font-size="11" font-weight="400" text-anchor="start">WAV · 24-bit · 48 kHz</text><text x="1124" y="430" fill="#66717C" font-family="Inter,DejaVu Sans,sans-serif" font-size="10" font-weight="700" text-anchor="start">SUGGESTIONS</text><rect x="1124" y="444" width="118" height="24" rx="12" fill="#1B2B39" stroke="#30363D"/><text x="1134" y="460" fill="#6FA3D8" font-family="Inter,DejaVu Sans,sans-serif" font-size="11" font-weight="600" text-anchor="start">Electronic 88%</text><text x="1124" y="502" fill="#66717C" font-family="Inter,DejaVu Sans,sans-serif" font-size="10" font-weight="700" text-anchor="start">COLLECTIONS</text><rect x="1124" y="516" width="139" height="24" rx="12" fill="#20252A" stroke="#30363D"/><text x="1134" y="532" fill="#98A2AD" font-family="Inter,DejaVu Sans,sans-serif" font-size="11" font-weight="600" text-anchor="start">Drum Machine Gold</text><rect x="1124" y="580" width="103.2" height="32" rx="5" fill="#20252A" stroke="#3A4148"/><text x="1175.6" y="601" fill="#F1F4F6" font-family="Inter,DejaVu Sans,sans-serif" font-size="12" font-weight="650" text-anchor="middle">Open Detail</text><rect x="1240" y="580" width="88" height="32" rx="5" fill="#CF8652" stroke="#CF8652"/><text x="1284" y="601" fill="#0B0D0F" font-family="Inter,DejaVu Sans,sans-serif" font-size="12" font-weight="650" text-anchor="middle">Prepare</text><rect x="0" y="828" width="1440" height="72" rx="0" fill="#101316" stroke="#30363D"/><text x="24" y="857" fill="#F1F4F6" font-family="Inter,DejaVu Sans,sans-serif" font-size="16" font-weight="600" text-anchor="start">◀  ▶  ↻</text><text x="116" y="855" fill="#F1F4F6" font-family="Inter,DejaVu Sans,sans-serif" font-size="12" font-weight="600" text-anchor="start">MPC60_Kick_03.wav</text><text x="116" y="875" fill="#98A2AD" font-family="Inter,DejaVu Sans,sans-serif" font-size="11" font-weight="400" text-anchor="start">00:00.000  /  00:00.000</text><line x1="350" y1="859" x2="1180" y2="859" stroke="#30363D" stroke-width="3"/><circle cx="350" cy="859" r="5" fill="#CF8652"/><text x="1270" y="855" fill="#66717C" font-family="Inter,DejaVu Sans,sans-serif" font-size="10" font-weight="700" text-anchor="start">PREVIEW</text><text x="1388" y="857" fill="#98A2AD" font-family="Inter,DejaVu Sans,sans-serif" font-size="12" font-weight="600" text-anchor="end">-6 dB</text></svg>