<svg xmlns="http://www.w3.org/2000/svg" width="1440" height="900" viewBox="0 0 1440 900">
<rect width="1440" height="900" fill="#111317"/>
<rect x="0" y="0" width="1440" height="56" fill="#181b20"/>
<text x="24" y="36" fill="#f1f3f5" font-family="sans-serif" font-size="22" font-weight="700">Koffer</text>
<rect x="232" y="12" width="650" height="32" rx="6" fill="#242830"/>
<text x="252" y="33" fill="#9299a5" font-family="sans-serif" font-size="14">Search samples, tags, instruments, BPM, key…</text>
<rect x="0" y="56" width="220" height="790" fill="#15181d"/>
<text x="20" y="92" fill="#757d89" font-family="sans-serif" font-size="11" font-weight="700">LIBRARY</text>
<g fill="#d8dce2" font-family="sans-serif" font-size="14">
<text x="20" y="124">All Samples</text><text x="20" y="154">One-shots</text><text x="20" y="184">Loops</text><text x="20" y="214">Phrases</text><text x="20" y="244">Tracks</text><text x="20" y="274">Instruments</text><text x="20" y="304">Genres / Styles</text><text x="20" y="334">Favourites</text>
</g>
<text x="20" y="382" fill="#757d89" font-family="sans-serif" font-size="11" font-weight="700">COLLECTIONS</text>
<g fill="#d8dce2" font-family="sans-serif" font-size="14"><text x="20" y="414">Favourite Breaks</text><text x="20" y="444">Vinyl Chops</text><text x="20" y="474">MPC Export</text></g>
<text x="20" y="522" fill="#757d89" font-family="sans-serif" font-size="11" font-weight="700">SOURCES</text>
<g fill="#d8dce2" font-family="sans-serif" font-size="14"><text x="20" y="554">~/Samples</text><text x="20" y="584">/media/Archive</text></g>
<rect x="220" y="56" width="880" height="790" fill="#111317"/>
<text x="244" y="90" fill="#f1f3f5" font-family="sans-serif" font-size="18" font-weight="700">All Samples</text>
<g font-family="sans-serif" font-size="12">
<rect x="244" y="106" width="86" height="26" rx="13" fill="#2b3038"/><text x="260" y="123" fill="#d8dce2">One-shot</text>
<rect x="338" y="106" width="65" height="26" rx="13" fill="#2b3038"/><text x="353" y="123" fill="#d8dce2">Drum</text>
<rect x="411" y="106" width="72" height="26" rx="13" fill="#2b3038"/><text x="427" y="123" fill="#d8dce2">Kick</text>
<rect x="491" y="106" width="92" height="26" rx="13" fill="#202d29"/><text x="507" y="123" fill="#9bd7c3">+ Filter</text>
</g>
<rect x="244" y="150" width="832" height="34" fill="#1a1d22"/>
<g fill="#8e96a2" font-family="sans-serif" font-size="11"><text x="262" y="171">NAME</text><text x="610" y="171">TYPE</text><text x="730" y="171">SOURCE</text><text x="842" y="171">BPM</text><text x="900" y="171">KEY</text><text x="958" y="171">LENGTH</text></g>
<g font-family="sans-serif" font-size="13">
<rect x="244" y="184" width="832" height="48" fill="#20242a"/>
<text x="262" y="213" fill="#f3f5f7">808_kick_long_04.wav</text><text x="610" y="213" fill="#c7ccd3">One-shot</text><text x="730" y="213" fill="#c7ccd3">Kick</text><text x="842" y="213" fill="#69717d">—</text><text x="900" y="213" fill="#69717d">—</text><text x="958" y="213" fill="#c7ccd3">0.73 s</text>
<rect x="244" y="232" width="832" height="48" fill="#15181d"/>
<text x="262" y="261" fill="#d9dde2">amen_165_dmin_03.wav</text><text x="610" y="261" fill="#c7ccd3">Loop</text><text x="730" y="261" fill="#c7ccd3">Drums</text><text x="842" y="261" fill="#c7ccd3">165</text><text x="900" y="261" fill="#c7ccd3">Dm</text><text x="958" y="261" fill="#c7ccd3">5.82 s</text>
<rect x="244" y="280" width="832" height="48" fill="#15181d"/>
<text x="262" y="309" fill="#d9dde2">soul_vox_phrase_07.wav</text><text x="610" y="309" fill="#c7ccd3">Phrase</text><text x="730" y="309" fill="#c7ccd3">Vocal</text><text x="842" y="309" fill="#c7ccd3">92</text><text x="900" y="309" fill="#c7ccd3">Am</text><text x="958" y="309" fill="#c7ccd3">3.14 s</text>
</g>
<rect x="1100" y="56" width="340" height="790" fill="#171a1f"/>
<text x="1124" y="92" fill="#f1f3f5" font-family="sans-serif" font-size="16" font-weight="700">808_kick_long_04.wav</text>
<rect x="1124" y="116" width="292" height="120" rx="6" fill="#0c0e11" stroke="#303640"/>
<path d="M1136 178 L1142 172 L1148 185 L1154 158 L1160 203 L1166 147 L1172 214 L1178 154 L1184 192 L1190 169 L1196 183 L1202 175 L1208 180 L1214 176 L1220 179 L1226 177 L1232 178 L1240 177 L1250 178 L1264 178 L1284 178 L1310 178 L1340 178 L1380 178 L1404 178" fill="none" stroke="#8bd8c0" stroke-width="2"/>
<text x="1124" y="270" fill="#7f8793" font-family="sans-serif" font-size="11">CONFIRMED</text>
<text x="1124" y="296" fill="#dce0e5" font-family="sans-serif" font-size="13">One-shot · Drum · Kick</text>
<text x="1124" y="334" fill="#7f8793" font-family="sans-serif" font-size="11">SUGGESTED</text>
<rect x="1124" y="347" width="118" height="28" rx="5" fill="#202d29"/><text x="1136" y="366" fill="#9bd7c3" font-family="sans-serif" font-size="12">Electronic 88%</text>
<rect x="1248" y="347" width="84" height="28" rx="5" fill="#202d29"/><text x="1260" y="366" fill="#9bd7c3" font-family="sans-serif" font-size="12">808 95%</text>
<text x="1124" y="414" fill="#7f8793" font-family="sans-serif" font-size="11">FILE</text>
<g fill="#c6cbd2" font-family="sans-serif" font-size="12"><text x="1124" y="440">WAV · 24-bit · 44.1 kHz · Mono</text><text x="1124" y="462">0.73 seconds</text><text x="1124" y="484">~/Samples/Drum Kits/TR-808/Kicks/</text></g>
<rect x="0" y="846" width="1440" height="54" fill="#1b1f24"/>
<text x="24" y="878" fill="#aeb4bd" font-family="sans-serif" font-size="12">13,482 samples · Analysis idle</text>
<circle cx="665" cy="873" r="14" fill="#2e353e"/><polygon points="661,866 661,880 672,873" fill="#f1f3f5"/>
<text x="700" y="878" fill="#dce0e5" font-family="sans-serif" font-size="12">808_kick_long_04.wav</text>
</svg>